# xmcd
#
# Track frame offsets:
#   150
#   15315
#   33969
#   49183
#   62959
#   77929
#   83294
#   102570
#   120769
#   134749
#   151974
#
# Disc length: 2258 seconds
#
# Revision: 0
# Processed by: cddbd v1.4PL0 Copyright (c) Steve Scherf et al.
# Submitted via: uFREEDB 1.6.0
#
DISCID=8108d00b
DTITLE=Emanuel - Emanuel
DYEAR=2003
DGENRE=Pop
TTITLE0=Pentru amandoi
TTITLE1=Stai
TTITLE2=Asculta-ti inima! (o 9 iubire)
TTITLE3=Vreau sa...
TTITLE4=Daca as putea
TTITLE5=In zori
TTITLE6=Te voi iubi
TTITLE7=O iesire de-o noapte
TTITLE8=Prea tarziu
TTITLE9=N-am sa pot ierta
TTITLE10=Pentru amandoi (Club Mix by Activ)
EXTD=
EXTT0=
EXTT1=
EXTT2=
EXTT3=
EXTT4=
EXTT5=
EXTT6=
EXTT7=
EXTT8=
EXTT9=
EXTT10=
PLAYORDER=
